<?xml version="1.0" encoding="utf-8"?>
<!-- Generator: Adobe Illustrator 24.0.0, SVG Export Plug-In . SVG Version: 6.00 Build 0)  -->
<svg version="1.1" id="Layer_1" xmlns="http://www.w3.org/2000/svg" xmlns:xlink="http://www.w3.org/1999/xlink" x="0px" y="0px"
	 viewBox="0 0 632.3 371.5" style="enable-background:new 0 0 632.3 371.5;" xml:space="preserve">
<style type="text/css">
	.st0{display:none;}
	.st1{fill:#BB2D25;}
	.st2{fill:#D72C26;}
	.st3{fill:#E9B51F;}
	.st4{fill:#1B3C1A;}
	.st5{fill:url(#SVGID_1_);}
	.st6{fill:none;stroke:#1A3E71;stroke-width:6;stroke-linejoin:round;}
	.st7{fill:#1A3E71;}
	.st8{fill:none;stroke:#1A4589;stroke-width:6;stroke-linejoin:round;}
	.st9{fill:#FFFFFF;}
	.st10{fill:none;stroke:#1C417A;stroke-width:3.1404;stroke-miterlimit:10;}
</style>
<g id="reference" class="st0">
	
		<image style="display:inline;overflow:visible;enable-background:new    ;" width="1870" height="3766" xlink:href="2ABEE8FF46450861.jpg"  transform="matrix(0.1988 0 0 0.1988 -484.8372 -253.8668)">
	</image>
</g>
<g id="base">
	<g>
		<path class="st1" d="M316.9,58c5.4,0,74.8,24.9,144,56.4c71.3,32.4,142.4,71.4,142.4,71.4s-69.3,39.9-139.9,72.7
			c-66.6,31-134.3,55-146.5,55c-12.1,0-79.9-23.9-146.7-54.7c-71.3-33-141.4-73-141.4-73s70.8-38.6,142.2-70.9
			C240.9,83.3,311.5,58,316.9,58 M316.9,0c-10,0-18.5,2.3-33.8,7.5c-9.7,3.3-22,7.7-35.5,12.9c-19.3,7.3-57.9,22.4-100.4,41.6
			C74.5,94.8,4,133.2,1,134.9L0,236.2c3,1.7,73.1,41.7,145.9,75.3c32,14.8,66.9,29.3,98.2,40.7c14.4,5.3,27.1,9.6,37.6,12.7
			c16,4.8,25.9,6.6,35.3,6.6s19.3-1.9,35.4-6.7c10.5-3.2,23.1-7.5,37.6-12.8c31.2-11.5,66-26.1,98-41c72.1-33.5,141.4-73.4,144.3-75
			l-1-101.1c-3-1.6-73.8-40.4-146.3-73.3c-42.1-19.1-80.2-34.1-99.2-41.4c-13.3-5.1-25.5-9.5-35.1-12.7C335.3,2.3,326.9,0,316.9,0
			L316.9,0z"/>
		<path class="st2" d="M316.9,58c5.4,0,74.8,24.9,144,56.4c71.3,32.4,142.4,71.4,142.4,71.4s-69.3,39.9-139.9,72.7
			c-66.6,31-134.3,55-146.5,55c-12.1,0-79.9-23.9-146.7-54.7c-71.3-33-141.4-73-141.4-73s70.8-38.6,142.2-70.9
			C240.9,83.3,311.5,58,316.9,58 M316.9,7c-9,0-16.7,2.1-31.6,7.1c-9.6,3.3-21.8,7.7-35.3,12.8c-19.2,7.3-57.7,22.3-100,41.5
			C77.6,101.1,7.3,139.4,4.3,141l-0.9,89c2.9,1.7,72.9,41.5,145.3,75c31.9,14.7,66.6,29.1,97.7,40.5c51.6,18.9,63.8,18.9,70.4,18.9
			s18.9,0,70.5-19.1c31.1-11.5,65.7-25.9,97.5-40.7c71.8-33.4,140.9-73.1,143.8-74.8l-0.9-88.9c-3-1.6-73.5-40.3-145.8-73.1
			c-41.9-19-79.9-34-98.8-41.2c-13.3-5.1-25.3-9.4-34.8-12.7C333.6,9.1,325.9,7,316.9,7L316.9,7z"/>
		<path class="st3" d="M316.9,58c5.4,0,74.8,24.9,144,56.4c71.3,32.4,142.4,71.4,142.4,71.4s-69.3,39.9-139.9,72.7
			c-66.6,31-134.3,55-146.5,55c-12.1,0-79.9-23.9-146.7-54.7c-71.3-33-141.4-73-141.4-73s70.8-38.6,142.2-70.9
			C240.9,83.3,311.5,58,316.9,58 M316.9,49c-1.5,0-3.6,0-18.1,4.9C289.6,57,278,61.2,265,66.1c-18.7,7.1-56.3,21.8-97.6,40.5
			c-70.9,32.1-142.1,70.8-142.8,71.2c-2.9,1.6-4.7,4.6-4.7,7.8c0,3.3,1.7,6.3,4.5,7.9c0.7,0.4,71.3,40.6,142.1,73.4
			c30.9,14.3,64.4,28.2,94.5,39.2c20.3,7.5,46.6,16.3,55.9,16.3c9.4,0,35.6-9,56-16.5c30-11.1,63.5-25.1,94.3-39.4
			c70.2-32.6,139.9-72.7,140.6-73.1c2.8-1.6,4.5-4.6,4.5-7.9s-1.8-6.2-4.7-7.8c-0.7-0.4-72.1-39.5-143-71.7
			c-40.9-18.6-77.9-33.2-96.4-40.2c-12.8-4.9-24.3-9.1-33.3-12.1C320.5,49,318.4,49,316.9,49L316.9,49z"/>
		<path class="st4" d="M316.9,58c5.4,0,74.8,24.9,144,56.4c71.3,32.4,142.4,71.4,142.4,71.4s-69.3,39.9-139.9,72.7
			c-66.6,31-134.3,55-146.5,55c-12.1,0-79.9-23.9-146.7-54.7c-71.3-33-141.4-73-141.4-73s70.8-38.6,142.2-70.9
			C240.9,83.3,311.5,58,316.9,58 M316.9,55c-6.6,0-80.5,27-147.1,57.1c-70.7,32-141.7,70.6-142.4,71c-1,0.5-1.6,1.5-1.6,2.6
			s0.6,2.1,1.5,2.6c0.7,0.4,71.1,40.5,141.7,73.1c65.9,30.5,134.8,55,147.9,55s81.9-24.7,147.7-55.3
			c69.9-32.5,139.4-72.4,140.1-72.8c0.9-0.5,1.5-1.5,1.5-2.6s-0.6-2.1-1.6-2.6c-0.7-0.4-71.9-39.4-142.6-71.5
			C395.2,81.2,323.7,55,316.9,55L316.9,55z"/>
		
			<radialGradient id="SVGID_1_" cx="315.95" cy="158.4898" r="222.2834" gradientTransform="matrix(1 0 0 -1 0 344.2898)" gradientUnits="userSpaceOnUse">
			<stop  offset="0" style="stop-color:#2464A3"/>
			<stop  offset="6.083357e-02" style="stop-color:#225E9D"/>
			<stop  offset="0.2209" style="stop-color:#1D5394"/>
			<stop  offset="0.4033" style="stop-color:#1B4B8D"/>
			<stop  offset="0.625" style="stop-color:#1A468A"/>
			<stop  offset="0.9965" style="stop-color:#1A4589"/>
			<stop  offset="1" style="stop-color:#1C417A"/>
		</radialGradient>
		<path class="st5" d="M603.2,185.8c0,0-69.3,39.9-139.9,72.7c-66.6,31-134.3,55-146.5,55c-12.1,0-79.9-23.9-146.7-54.7
			c-71.3-33-141.4-73-141.4-73s70.8-38.6,142.2-70.9c69.9-31.6,140.4-56.8,145.9-56.8c5.4,0,74.8,24.9,144,56.4
			C532.2,146.8,603.2,185.8,603.2,185.8z"/>
	</g>
</g>
<g id="cameron_x27_s">
	<g>
		<g>
			<path class="st6" d="M99.6,206.1l-25.4,3.7l0.5-17.2c0.1-5,0-8.1-0.5-9.2c-0.5-1.2-1.7-1.6-3.5-1.3c-2.1,0.3-3.4,1.2-4.1,2.8
				c-0.6,1.6-1,4.9-1.1,9.9l-1.3,45.9c-0.1,4.8,0.1,7.9,0.6,9.3s1.8,1.9,3.7,1.6s3.2-1.2,3.8-2.7c0.6-1.6,1-5,1.2-10.5l0.4-12.4
				l25.4-3.7l-0.1,3.8c-0.3,10.2-1.2,17.6-2.8,22.1s-4.8,8.7-9.8,12.6c-5,3.9-11.1,6.4-18.2,7.4c-7.5,1.1-13.6,0.6-18.3-1.4
				c-4.8-2-7.8-5.3-9.3-9.9c-1.4-4.6-2-11.7-1.7-21.4l0.8-28.9c0.2-7.1,0.6-12.5,1.2-16.1c0.6-3.6,2.1-7.3,4.6-10.9
				s5.9-6.7,10.2-9.2s9.2-4.2,14.7-4.9c7.5-1.1,13.6-0.5,18.4,1.7s7.9,5.4,9.3,9.6c1.4,4.1,2,10.8,1.7,20L99.6,206.1z"/>
			<path class="st6" d="M155.2,155.2l11.7,96.7l-26,3.7L140,238l-9.1,1.3l-2,18l-26.3,3.8l15.8-100.6L155.2,155.2z M139.9,220.7
				c-1-11-1.9-24.6-2.7-40.9c-3.1,19.3-5.2,33.4-6.1,42.2L139.9,220.7z"/>
			<path class="st6" d="M253.7,141l-2.8,98.8l-22.2,3.2l1.9-66.7l-10.8,68l-15.8,2.3l-7.5-63.8l-1.9,65.2l-22.2,3.2l2.8-98.8
				l32.9-4.7c0.8,5.8,1.6,12.7,2.4,20.6l2.9,24.6l7.2-47L253.7,141z"/>
			<path class="st6" d="M265.2,139.4l42.4-6.1l-0.6,19.8l-17,2.4l-0.5,18.7l15.9-2.3l-0.5,18.8L289,193l-0.6,21.7l18.7-2.7
				l-0.6,19.8l-44.1,6.4L265.2,139.4z"/>
			<path class="st6" d="M317.8,131.8l18-2.6c12-1.7,20.1-2.4,24.3-2.1c4.2,0.3,7.6,2.2,10.2,5.7s3.7,9.4,3.5,17.8
				c-0.2,7.7-1.3,13-3.3,15.9s-5.7,5-11.3,6.4c5,0.5,8.3,1.7,10,3.6c1.7,1.9,2.7,3.7,3.1,5.4c0.4,1.7,0.4,6.5,0.2,14.5l-0.7,26.1
				l-23.6,3.4l0.9-32.8c0.2-5.3-0.2-8.5-1-9.6s-2.9-1.5-6.4-1l-1.3,44.5l-25.4,3.7L317.8,131.8z M342.8,145l-0.6,22
				c2.9-0.4,4.9-1.1,6-2.1c1.2-1,1.8-3.6,1.9-8l0.2-5.4c0.1-3.1-0.4-5.1-1.5-5.9C347.7,144.8,345.7,144.6,342.8,145z"/>
			<path class="st6" d="M442.2,171.5c-0.3,9.9-0.7,17-1.3,21.2s-2.1,8.2-4.7,11.9c-2.5,3.8-5.9,6.9-10.1,9.3
				c-4.2,2.4-9.1,4-14.6,4.8c-5.2,0.8-9.9,0.6-14-0.6c-4.1-1.1-7.4-3.2-9.8-6.3c-2.4-3.1-3.8-6.6-4.2-10.6c-0.4-4-0.4-11.1-0.1-21.2
				l0.5-16.9c0.3-9.9,0.7-17,1.3-21.2c0.6-4.2,2.1-8.2,4.7-11.9c2.5-3.8,5.9-6.9,10.1-9.3c4.2-2.4,9.1-4,14.6-4.8
				c5.2-0.8,9.9-0.6,14,0.6c4.1,1.1,7.4,3.2,9.8,6.3c2.4,3.1,3.8,6.6,4.2,10.6s0.4,11.1,0.1,21.2L442.2,171.5z M417.7,142.7
				c0.1-4.6,0-7.5-0.5-8.7s-1.5-1.7-3.1-1.5c-1.3,0.2-2.4,0.9-3.1,2c-0.7,1.1-1.2,4.2-1.3,9.3l-1.3,46.1c-0.2,5.7,0,9.2,0.4,10.5
				s1.5,1.8,3.2,1.5c1.7-0.2,2.9-1.2,3.4-2.8c0.5-1.6,0.9-5.3,1-11.1L417.7,142.7z"/>
			<path class="st6" d="M511.3,103.9l-2.8,98.8l-22.3,3.2l-11.9-43l-1.3,44.9l-21.3,3.1l2.8-98.8l21.3-3.1l13,42.4l1.3-44.5
				L511.3,103.9z"/>
			<path class="st6" d="M536.3,100.4l-0.3,8.8c-0.1,4.6-0.8,8.5-2,11.6s-3.1,5.9-5.9,8.4c-2.7,2.4-5.8,4.3-9.2,5.5l0.2-7.1
				c2.5-1.7,3.9-3.7,4.3-6.1l-4.1,0.6l0.6-19.3L536.3,100.4z"/>
			<path class="st6" d="M597.8,121.3l-23.6,3.4l0.2-7.3c0.1-3.4-0.1-5.5-0.7-6.4c-0.6-0.8-1.6-1.2-3-1c-1.5,0.2-2.7,1-3.5,2.4
				s-1.3,3.3-1.3,5.9c-0.1,3.3,0.3,5.7,1.1,7.3c0.8,1.5,3.1,3.2,7,5c11.1,5.2,18.1,9.7,20.9,13.6c2.8,3.9,4.1,10.7,3.8,20.4
				c-0.2,7-1.2,12.3-2.9,15.9c-1.7,3.6-5,6.8-9.7,9.8c-4.7,2.9-10.2,4.8-16.4,5.7c-6.8,1-12.6,0.5-17.3-1.4s-7.8-4.8-9.2-8.6
				c-1.4-3.8-2-9.4-1.7-16.8l0.2-6.5l23.6-3.4l-0.3,12c-0.1,3.7,0.2,6,0.8,7s1.8,1.3,3.5,1.1s3-1.1,3.8-2.6c0.9-1.5,1.3-3.5,1.4-6.2
				c0.2-5.8-0.5-9.5-2-11.1c-1.6-1.6-5.4-4-11.6-7.3c-6.2-3.3-10.3-5.8-12.3-7.4c-2-1.6-3.6-4-4.9-7.2s-1.8-7.4-1.7-12.6
				c0.2-7.6,1.3-13.2,3.3-17s5.2-7,9.5-9.5c4.3-2.6,9.5-4.3,15.6-5.2c6.6-1,12.2-0.7,16.8,0.8s7.6,3.8,9,6.8c1.4,3.1,2,8.5,1.8,16.4
				L597.8,121.3z"/>
			<path class="st7" d="M99.6,206.1l-25.4,3.7l0.5-17.2c0.1-5,0-8.1-0.5-9.2c-0.5-1.2-1.7-1.6-3.5-1.3c-2.1,0.3-3.4,1.2-4.1,2.8
				c-0.6,1.6-1,4.9-1.1,9.9l-1.3,45.9c-0.1,4.8,0.1,7.9,0.6,9.3s1.8,1.9,3.7,1.6s3.2-1.2,3.8-2.7c0.6-1.6,1-5,1.2-10.5l0.4-12.4
				l25.4-3.7l-0.1,3.8c-0.3,10.2-1.2,17.6-2.8,22.1s-4.8,8.7-9.8,12.6c-5,3.9-11.1,6.4-18.2,7.4c-7.5,1.1-13.6,0.6-18.3-1.4
				c-4.8-2-7.8-5.3-9.3-9.9c-1.4-4.6-2-11.7-1.7-21.4l0.8-28.9c0.2-7.1,0.6-12.5,1.2-16.1c0.6-3.6,2.1-7.3,4.6-10.9
				s5.9-6.7,10.2-9.2s9.2-4.2,14.7-4.9c7.5-1.1,13.6-0.5,18.4,1.7s7.9,5.4,9.3,9.6c1.4,4.1,2,10.8,1.7,20L99.6,206.1z"/>
			<path class="st7" d="M155.2,155.2l11.7,96.7l-26,3.7L140,238l-9.1,1.3l-2,18l-26.3,3.8l15.8-100.6L155.2,155.2z M139.9,220.7
				c-1-11-1.9-24.6-2.7-40.9c-3.1,19.3-5.2,33.4-6.1,42.2L139.9,220.7z"/>
			<path class="st7" d="M253.7,141l-2.8,98.8l-22.2,3.2l1.9-66.7l-10.8,68l-15.8,2.3l-7.5-63.8l-1.9,65.2l-22.2,3.2l2.8-98.8
				l32.9-4.7c0.8,5.8,1.6,12.7,2.4,20.6l2.9,24.6l7.2-47L253.7,141z"/>
			<path class="st7" d="M265.2,139.4l42.4-6.1l-0.6,19.8l-17,2.4l-0.5,18.7l15.9-2.3l-0.5,18.8L289,193l-0.6,21.7l18.7-2.7
				l-0.6,19.8l-44.1,6.4L265.2,139.4z"/>
			<path class="st7" d="M317.8,131.8l18-2.6c12-1.7,20.1-2.4,24.3-2.1c4.2,0.3,7.6,2.2,10.2,5.7s3.7,9.4,3.5,17.8
				c-0.2,7.7-1.3,13-3.3,15.9s-5.7,5-11.3,6.4c5,0.5,8.3,1.7,10,3.6c1.7,1.9,2.7,3.7,3.1,5.4c0.4,1.7,0.4,6.5,0.2,14.5l-0.7,26.1
				l-23.6,3.4l0.9-32.8c0.2-5.3-0.2-8.5-1-9.6s-2.9-1.5-6.4-1l-1.3,44.5l-25.4,3.7L317.8,131.8z M342.8,145l-0.6,22
				c2.9-0.4,4.9-1.1,6-2.1c1.2-1,1.8-3.6,1.9-8l0.2-5.4c0.1-3.1-0.4-5.1-1.5-5.9C347.7,144.8,345.7,144.6,342.8,145z"/>
			<path class="st7" d="M442.2,171.5c-0.3,9.9-0.7,17-1.3,21.2s-2.1,8.2-4.7,11.9c-2.5,3.8-5.9,6.9-10.1,9.3
				c-4.2,2.4-9.1,4-14.6,4.8c-5.2,0.8-9.9,0.6-14-0.6c-4.1-1.1-7.4-3.2-9.8-6.3c-2.4-3.1-3.8-6.6-4.2-10.6c-0.4-4-0.4-11.1-0.1-21.2
				l0.5-16.9c0.3-9.9,0.7-17,1.3-21.2c0.6-4.2,2.1-8.2,4.7-11.9c2.5-3.8,5.9-6.9,10.1-9.3c4.2-2.4,9.1-4,14.6-4.8
				c5.2-0.8,9.9-0.6,14,0.6c4.1,1.1,7.4,3.2,9.8,6.3c2.4,3.1,3.8,6.6,4.2,10.6s0.4,11.1,0.1,21.2L442.2,171.5z M417.7,142.7
				c0.1-4.6,0-7.5-0.5-8.7s-1.5-1.7-3.1-1.5c-1.3,0.2-2.4,0.9-3.1,2c-0.7,1.1-1.2,4.2-1.3,9.3l-1.3,46.1c-0.2,5.7,0,9.2,0.4,10.5
				s1.5,1.8,3.2,1.5c1.7-0.2,2.9-1.2,3.4-2.8c0.5-1.6,0.9-5.3,1-11.1L417.7,142.7z"/>
			<path class="st7" d="M511.3,103.9l-2.8,98.8l-22.3,3.2l-11.9-43l-1.3,44.9l-21.3,3.1l2.8-98.8l21.3-3.1l13,42.4l1.3-44.5
				L511.3,103.9z"/>
			<path class="st7" d="M536.3,100.4l-0.3,8.8c-0.1,4.6-0.8,8.5-2,11.6s-3.1,5.9-5.9,8.4c-2.7,2.4-5.8,4.3-9.2,5.5l0.2-7.1
				c2.5-1.7,3.9-3.7,4.3-6.1l-4.1,0.6l0.6-19.3L536.3,100.4z"/>
			<path class="st7" d="M597.8,121.3l-23.6,3.4l0.2-7.3c0.1-3.4-0.1-5.5-0.7-6.4c-0.6-0.8-1.6-1.2-3-1c-1.5,0.2-2.7,1-3.5,2.4
				s-1.3,3.3-1.3,5.9c-0.1,3.3,0.3,5.7,1.1,7.3c0.8,1.5,3.1,3.2,7,5c11.1,5.2,18.1,9.7,20.9,13.6c2.8,3.9,4.1,10.7,3.8,20.4
				c-0.2,7-1.2,12.3-2.9,15.9c-1.7,3.6-5,6.8-9.7,9.8c-4.7,2.9-10.2,4.8-16.4,5.7c-6.8,1-12.6,0.5-17.3-1.4s-7.8-4.8-9.2-8.6
				c-1.4-3.8-2-9.4-1.7-16.8l0.2-6.5l23.6-3.4l-0.3,12c-0.1,3.7,0.2,6,0.8,7s1.8,1.3,3.5,1.1s3-1.1,3.8-2.6c0.9-1.5,1.3-3.5,1.4-6.2
				c0.2-5.8-0.5-9.5-2-11.1c-1.6-1.6-5.4-4-11.6-7.3c-6.2-3.3-10.3-5.8-12.3-7.4c-2-1.6-3.6-4-4.9-7.2s-1.8-7.4-1.7-12.6
				c0.2-7.6,1.3-13.2,3.3-17s5.2-7,9.5-9.5c4.3-2.6,9.5-4.3,15.6-5.2c6.6-1,12.2-0.7,16.8,0.8s7.6,3.8,9,6.8c1.4,3.1,2,8.5,1.8,16.4
				L597.8,121.3z"/>
		</g>
		<g>
			<g>
				<path class="st8" d="M93.9,203.2l-25.4,3.7l0.5-17.2c0.1-5,0-8.1-0.5-9.2c-0.5-1.2-1.7-1.6-3.5-1.3c-2.1,0.3-3.4,1.2-4.1,2.8
					c-0.6,1.6-1,4.9-1.1,9.9l-1.3,45.9c-0.1,4.8,0.1,7.9,0.6,9.3s1.8,1.9,3.7,1.6s3.2-1.2,3.8-2.7c0.6-1.6,1-5,1.2-10.5l0.4-12.4
					l25.4-3.7l-0.1,3.8c-0.3,10.2-1.2,17.6-2.8,22.1s-4.8,8.7-9.8,12.6c-5,3.9-11.1,6.4-18.2,7.4c-7.5,1.1-13.6,0.6-18.3-1.4
					c-4.8-2-7.8-5.3-9.3-9.9c-1.4-4.6-2-11.7-1.7-21.4l0.8-28.9c0.2-7.1,0.6-12.5,1.2-16.1c0.6-3.6,2.1-7.3,4.6-10.9
					s5.9-6.7,10.2-9.2s9.2-4.2,14.7-4.9c7.5-1.1,13.6-0.5,18.4,1.7s7.9,5.4,9.3,9.6c1.4,4.1,2,10.8,1.7,20L93.9,203.2z"/>
				<path class="st8" d="M149.5,152.4l11.7,96.7l-26,3.7l-0.9-17.6l-9.1,1.3l-2,18l-26.3,3.8l15.8-100.6L149.5,152.4z M134.2,217.9
					c-1-11-1.9-24.6-2.7-40.9c-3.1,19.3-5.2,33.4-6.1,42.2L134.2,217.9z"/>
				<path class="st8" d="M248.1,138.2l-2.8,98.8l-22.3,3.2l1.9-66.7l-10.8,68l-15.8,2.3l-7.5-63.8l-1.9,65.2l-22.2,3.2l2.8-98.8
					l32.9-4.7c0.8,5.8,1.6,12.7,2.4,20.6l2.9,24.6l7.2-47L248.1,138.2z"/>
				<path class="st8" d="M259.5,136.6l42.4-6.1l-0.6,19.8l-17,2.4l-0.5,18.7l15.9-2.3l-0.5,18.8l-15.9,2.3l-0.6,21.7l18.7-2.7
					l-0.6,19.8l-44.1,6.4L259.5,136.6z"/>
				<path class="st8" d="M312.2,129l18-2.6c12-1.7,20.1-2.4,24.3-2.1c4.2,0.3,7.6,2.2,10.2,5.7s3.7,9.4,3.5,17.8
					c-0.2,7.7-1.3,13-3.3,15.9s-5.7,5-11.3,6.4c5,0.5,8.3,1.7,10,3.6c1.7,1.9,2.7,3.7,3.1,5.4s0.4,6.5,0.2,14.5l-0.7,26.1l-23.6,3.4
					l0.9-32.8c0.2-5.3-0.2-8.5-1-9.6s-2.9-1.5-6.4-1l-1.3,44.5l-25.4,3.7L312.2,129z M337.1,142.2l-0.6,22c2.9-0.4,4.9-1.1,6-2.1
					c1.2-1,1.8-3.6,1.9-8l0.2-5.4c0.1-3.1-0.4-5.1-1.5-5.9C342.1,142,340.1,141.8,337.1,142.2z"/>
				<path class="st8" d="M436.5,168.7c-0.3,9.9-0.7,17-1.3,21.2s-2.1,8.2-4.7,11.9c-2.5,3.8-5.9,6.9-10.1,9.3
					c-4.2,2.4-9.1,4-14.6,4.8c-5.2,0.8-9.9,0.6-14-0.6c-4.1-1.1-7.4-3.2-9.8-6.3c-2.4-3.1-3.8-6.6-4.2-10.6
					c-0.4-4-0.4-11.1-0.1-21.2l0.5-16.9c0.3-9.9,0.7-17,1.3-21.2c0.6-4.2,2.1-8.2,4.7-11.9c2.5-3.8,5.9-6.9,10.1-9.3
					c4.2-2.4,9.1-4,14.6-4.8c5.2-0.8,9.9-0.6,14,0.6c4.1,1.1,7.4,3.2,9.8,6.3c2.4,3.1,3.8,6.6,4.2,10.6s0.4,11.1,0.1,21.2
					L436.5,168.7z M412,139.9c0.1-4.6,0-7.5-0.5-8.7s-1.5-1.7-3.1-1.5c-1.3,0.2-2.4,0.9-3.1,2s-1.2,4.2-1.3,9.3l-1.3,46.1
					c-0.2,5.7,0,9.2,0.4,10.5s1.5,1.8,3.2,1.5c1.7-0.2,2.9-1.2,3.4-2.8c0.5-1.6,0.9-5.3,1-11.1L412,139.9z"/>
				<path class="st8" d="M505.7,101.1l-2.8,98.8l-22.3,3.2l-11.9-43l-1.3,44.9l-21.3,3.1l2.8-98.8l21.3-3.1l13,42.4l1.3-44.5
					L505.7,101.1z"/>
				<path class="st8" d="M530.6,97.5l-0.3,8.8c-0.1,4.6-0.8,8.5-2,11.6s-3.1,5.9-5.9,8.4c-2.7,2.4-5.8,4.3-9.2,5.5l0.2-7.1
					c2.5-1.7,3.9-3.7,4.3-6.1l-4.1,0.6l0.6-19.3L530.6,97.5z"/>
				<path class="st8" d="M592.2,118.4l-23.6,3.4l0.2-7.3c0.1-3.4-0.1-5.5-0.7-6.4c-0.6-0.8-1.6-1.2-3-1c-1.5,0.2-2.7,1-3.5,2.4
					s-1.3,3.3-1.3,5.9c-0.1,3.3,0.3,5.7,1.1,7.3c0.8,1.5,3.1,3.2,7,5c11.1,5.2,18.1,9.7,20.9,13.6c2.8,3.9,4.1,10.7,3.8,20.4
					c-0.2,7-1.2,12.3-2.9,15.9s-5,6.8-9.7,9.8c-4.7,2.9-10.2,4.8-16.4,5.7c-6.8,1-12.6,0.5-17.3-1.4s-7.8-4.8-9.2-8.6
					c-1.4-3.8-2-9.4-1.7-16.8l0.2-6.5l23.6-3.4l-0.3,12c-0.1,3.7,0.2,6,0.8,7s1.8,1.3,3.5,1.1s3-1.1,3.8-2.6
					c0.9-1.5,1.3-3.5,1.4-6.2c0.2-5.8-0.5-9.5-2-11.1c-1.6-1.6-5.4-4-11.6-7.3c-6.2-3.3-10.3-5.8-12.3-7.4c-2-1.6-3.6-4-4.9-7.2
					s-1.8-7.4-1.7-12.6c0.2-7.6,1.3-13.2,3.3-17s5.2-7,9.5-9.5c4.3-2.6,9.5-4.3,15.6-5.2c6.6-1,12.2-0.7,16.8,0.8s7.6,3.8,9,6.8
					c1.4,3.1,2,8.5,1.8,16.4L592.2,118.4z"/>
			</g>
			<g>
				<path class="st9" d="M93.9,203.2l-25.4,3.7l0.5-17.2c0.1-5,0-8.1-0.5-9.2c-0.5-1.2-1.7-1.6-3.5-1.3c-2.1,0.3-3.4,1.2-4.1,2.8
					c-0.6,1.6-1,4.9-1.1,9.9l-1.3,45.9c-0.1,4.8,0.1,7.9,0.6,9.3s1.8,1.9,3.7,1.6s3.2-1.2,3.8-2.7c0.6-1.6,1-5,1.2-10.5l0.4-12.4
					l25.4-3.7l-0.1,3.8c-0.3,10.2-1.2,17.6-2.8,22.1s-4.8,8.7-9.8,12.6c-5,3.9-11.1,6.4-18.2,7.4c-7.5,1.1-13.6,0.6-18.3-1.4
					c-4.8-2-7.8-5.3-9.3-9.9c-1.4-4.6-2-11.7-1.7-21.4l0.8-28.9c0.2-7.1,0.6-12.5,1.2-16.1c0.6-3.6,2.1-7.3,4.6-10.9
					s5.9-6.7,10.2-9.2s9.2-4.2,14.7-4.9c7.5-1.1,13.6-0.5,18.4,1.7s7.9,5.4,9.3,9.6c1.4,4.1,2,10.8,1.7,20L93.9,203.2z"/>
				<path class="st9" d="M149.5,152.4l11.7,96.7l-26,3.7l-0.9-17.6l-9.1,1.3l-2,18l-26.3,3.8l15.8-100.6L149.5,152.4z M134.2,217.9
					c-1-11-1.9-24.6-2.7-40.9c-3.1,19.3-5.2,33.4-6.1,42.2L134.2,217.9z"/>
				<path class="st9" d="M248.1,138.2l-2.8,98.8l-22.3,3.2l1.9-66.7l-10.8,68l-15.8,2.3l-7.5-63.8l-1.9,65.2l-22.2,3.2l2.8-98.8
					l32.9-4.7c0.8,5.8,1.6,12.7,2.4,20.6l2.9,24.6l7.2-47L248.1,138.2z"/>
				<path class="st9" d="M259.5,136.6l42.4-6.1l-0.6,19.8l-17,2.4l-0.5,18.7l15.9-2.3l-0.5,18.8l-15.9,2.3l-0.6,21.7l18.7-2.7
					l-0.6,19.8l-44.1,6.4L259.5,136.6z"/>
				<path class="st9" d="M312.2,129l18-2.6c12-1.7,20.1-2.4,24.3-2.1c4.2,0.3,7.6,2.2,10.2,5.7s3.7,9.4,3.5,17.8
					c-0.2,7.7-1.3,13-3.3,15.9s-5.7,5-11.3,6.4c5,0.5,8.3,1.7,10,3.6c1.7,1.9,2.7,3.7,3.1,5.4s0.4,6.5,0.2,14.5l-0.7,26.1l-23.6,3.4
					l0.9-32.8c0.2-5.3-0.2-8.5-1-9.6s-2.9-1.5-6.4-1l-1.3,44.5l-25.4,3.7L312.2,129z M337.1,142.2l-0.6,22c2.9-0.4,4.9-1.1,6-2.1
					c1.2-1,1.8-3.6,1.9-8l0.2-5.4c0.1-3.1-0.4-5.1-1.5-5.9C342.1,142,340.1,141.8,337.1,142.2z"/>
				<path class="st9" d="M436.5,168.7c-0.3,9.9-0.7,17-1.3,21.2s-2.1,8.2-4.7,11.9c-2.5,3.8-5.9,6.9-10.1,9.3
					c-4.2,2.4-9.1,4-14.6,4.8c-5.2,0.8-9.9,0.6-14-0.6c-4.1-1.1-7.4-3.2-9.8-6.3c-2.4-3.1-3.8-6.6-4.2-10.6
					c-0.4-4-0.4-11.1-0.1-21.2l0.5-16.9c0.3-9.9,0.7-17,1.3-21.2c0.6-4.2,2.1-8.2,4.7-11.9c2.5-3.8,5.9-6.9,10.1-9.3
					c4.2-2.4,9.1-4,14.6-4.8c5.2-0.8,9.9-0.6,14,0.6c4.1,1.1,7.4,3.2,9.8,6.3c2.4,3.1,3.8,6.6,4.2,10.6s0.4,11.1,0.1,21.2
					L436.5,168.7z M412,139.9c0.1-4.6,0-7.5-0.5-8.7s-1.5-1.7-3.1-1.5c-1.3,0.2-2.4,0.9-3.1,2s-1.2,4.2-1.3,9.3l-1.3,46.1
					c-0.2,5.7,0,9.2,0.4,10.5s1.5,1.8,3.2,1.5c1.7-0.2,2.9-1.2,3.4-2.8c0.5-1.6,0.9-5.3,1-11.1L412,139.9z"/>
				<path class="st9" d="M505.7,101.1l-2.8,98.8l-22.3,3.2l-11.9-43l-1.3,44.9l-21.3,3.1l2.8-98.8l21.3-3.1l13,42.4l1.3-44.5
					L505.7,101.1z"/>
				<path class="st9" d="M530.6,97.5l-0.3,8.8c-0.1,4.6-0.8,8.5-2,11.6s-3.1,5.9-5.9,8.4c-2.7,2.4-5.8,4.3-9.2,5.5l0.2-7.1
					c2.5-1.7,3.9-3.7,4.3-6.1l-4.1,0.6l0.6-19.3L530.6,97.5z"/>
				<path class="st9" d="M592.2,118.4l-23.6,3.4l0.2-7.3c0.1-3.4-0.1-5.5-0.7-6.4c-0.6-0.8-1.6-1.2-3-1c-1.5,0.2-2.7,1-3.5,2.4
					s-1.3,3.3-1.3,5.9c-0.1,3.3,0.3,5.7,1.1,7.3c0.8,1.5,3.1,3.2,7,5c11.1,5.2,18.1,9.7,20.9,13.6c2.8,3.9,4.1,10.7,3.8,20.4
					c-0.2,7-1.2,12.3-2.9,15.9s-5,6.8-9.7,9.8c-4.7,2.9-10.2,4.8-16.4,5.7c-6.8,1-12.6,0.5-17.3-1.4s-7.8-4.8-9.2-8.6
					c-1.4-3.8-2-9.4-1.7-16.8l0.2-6.5l23.6-3.4l-0.3,12c-0.1,3.7,0.2,6,0.8,7s1.8,1.3,3.5,1.1s3-1.1,3.8-2.6
					c0.9-1.5,1.3-3.5,1.4-6.2c0.2-5.8-0.5-9.5-2-11.1c-1.6-1.6-5.4-4-11.6-7.3c-6.2-3.3-10.3-5.8-12.3-7.4c-2-1.6-3.6-4-4.9-7.2
					s-1.8-7.4-1.7-12.6c0.2-7.6,1.3-13.2,3.3-17s5.2-7,9.5-9.5c4.3-2.6,9.5-4.3,15.6-5.2c6.6-1,12.2-0.7,16.8,0.8s7.6,3.8,9,6.8
					c1.4,3.1,2,8.5,1.8,16.4L592.2,118.4z"/>
			</g>
		</g>
	</g>
	<path class="st10" d="M418.3,80.7"/>
</g>
<g id="brewing">
	<g>
		<g>
			<path class="st8" d="M204.3,258.5l22.4-3c3.7-0.5,6.6,0,8.5,1.6c1.9,1.6,2.8,3.8,2.7,6.5c-0.1,2.3-0.9,4.4-2.4,6.2
				c-1,1.2-2.4,2.3-4.3,3.2c2.8,0.3,4.8,1.2,6,2.7s1.8,3.4,1.7,5.9c-0.1,2-0.6,3.9-1.6,5.7c-1,1.7-2.3,3.2-4,4.4
				c-1,0.7-2.6,1.4-4.6,1.9c-2.7,0.7-4.5,1.1-5.4,1.3l-20.7,2.8L204.3,258.5z M215.2,287.6l6.1-0.8c2.1-0.3,3.5-0.8,4.4-1.7
				c0.9-0.9,1.3-1.9,1.4-3.1c0-1.2-0.3-2-1.1-2.6c-0.8-0.6-2.3-0.7-4.4-0.5l-6.1,0.8L215.2,287.6z M215.8,272.3l5.2-0.7
				c1.9-0.2,3.2-0.7,3.9-1.5c0.8-0.7,1.2-1.7,1.2-3c0-1.1-0.3-2-1-2.5s-2-0.7-3.8-0.4l-5.3,0.7L215.8,272.3z"/>
			<path class="st8" d="M244.5,292l1.5-39.1l20-2.7c3.7-0.5,6.5-0.6,8.5-0.2c1.9,0.4,3.5,1.4,4.6,2.9c1.1,1.6,1.6,3.6,1.6,6.1
				c-0.1,2.2-0.6,4.1-1.6,5.8c-1,1.7-2.3,3.1-3.9,4.3c-1,0.8-2.5,1.5-4.3,2.1c1.4,0.3,2.4,0.6,3.1,1c0.4,0.3,1,0.9,1.8,1.8
				c0.8,0.9,1.3,1.7,1.6,2.2l5.4,10.5l-13.5,1.8l-5.9-11.1c-0.8-1.4-1.4-2.3-2.1-2.7c-0.8-0.5-1.8-0.7-2.9-0.5l-1.1,0.1l-0.6,15.9
				L244.5,292z M257.4,267.2l5.1-0.7c0.5-0.1,1.6-0.4,3.2-1c0.8-0.3,1.5-0.8,2-1.5s0.8-1.5,0.8-2.4c0-1.3-0.3-2.2-1.1-2.7
				s-2.2-0.7-4.4-0.4l-5.3,0.7L257.4,267.2z"/>
			<path class="st8" d="M287.4,247.4l32.1-4.3l-0.3,8.3l-20.1,2.7l-0.2,6.2l18.6-2.5l-0.3,8l-18.6,2.5l-0.3,7.7l20.7-2.8l-0.3,8.9
				l-32.7,4.4L287.4,247.4z"/>
			<path class="st8" d="M322,242.7l11.4-1.5l3.2,21.3l6.8-22.7l11.3-1.5l5.2,21l5-22.4l11.3-1.5l-10.1,40.2l-11.7,1.6l-5.8-23.7
				l-7.7,25.5l-11.7,1.6L322,242.7z"/>
			<path class="st8" d="M380.1,235l12-1.6l-1.5,39.1l-12,1.6L380.1,235z"/>
			<path class="st8" d="M400.2,232.3l11.2-1.5l13.8,19.7l0.8-21.6l11.3-1.5l-1.5,39.1l-11.3,1.5l-13.7-19.5L410,270l-11.3,1.5
				L400.2,232.3z"/>
			<path class="st8" d="M463.2,248.6l0.3-8.1L482,238l-0.6,16.7c-3.6,2.9-6.8,5-9.6,6.2s-6,2.1-9.7,2.6c-4.6,0.6-8.3,0.3-11.2-0.9
				c-2.8-1.2-5-3.2-6.5-6.2c-1.5-2.9-2.1-6.4-2-10.5c0.2-4.3,1.2-8.1,3.1-11.5c1.9-3.4,4.5-6.1,7.9-8.2c2.7-1.6,6.2-2.7,10.7-3.3
				c4.3-0.6,7.5-0.6,9.6-0.1s3.8,1.5,5.1,2.9c1.3,1.5,2.3,3.4,2.9,5.8l-11.6,3.6c-0.4-1.4-1.2-2.4-2.3-3.1c-1.1-0.6-2.5-0.8-4.3-0.6
				c-2.6,0.4-4.8,1.6-6.4,3.6c-1.6,2-2.5,5.1-2.7,9c-0.2,4.2,0.5,7.1,2,8.7s3.7,2.2,6.5,1.8c1.3-0.2,2.6-0.5,3.9-1.1
				s2.6-1.4,4.3-2.6l0.1-3.7L463.2,248.6z"/>
		</g>
		<g>
			<path class="st9" d="M204.3,258.5l22.4-3c3.7-0.5,6.6,0,8.5,1.6c1.9,1.6,2.8,3.8,2.7,6.5c-0.1,2.3-0.9,4.4-2.4,6.2
				c-1,1.2-2.4,2.3-4.3,3.2c2.8,0.3,4.8,1.2,6,2.7s1.8,3.4,1.7,5.9c-0.1,2-0.6,3.9-1.6,5.7c-1,1.7-2.3,3.2-4,4.4
				c-1,0.7-2.6,1.4-4.6,1.9c-2.7,0.7-4.5,1.1-5.4,1.3l-20.7,2.8L204.3,258.5z M215.2,287.6l6.1-0.8c2.1-0.3,3.5-0.8,4.4-1.7
				c0.9-0.9,1.3-1.9,1.4-3.1c0-1.2-0.3-2-1.1-2.6c-0.8-0.6-2.3-0.7-4.4-0.5l-6.1,0.8L215.2,287.6z M215.8,272.3l5.2-0.7
				c1.9-0.2,3.2-0.7,3.9-1.5c0.8-0.7,1.2-1.7,1.2-3c0-1.1-0.3-2-1-2.5s-2-0.7-3.8-0.4l-5.3,0.7L215.8,272.3z"/>
			<path class="st9" d="M244.5,292l1.5-39.1l20-2.7c3.7-0.5,6.5-0.6,8.5-0.2c1.9,0.4,3.5,1.4,4.6,2.9c1.1,1.6,1.6,3.6,1.6,6.1
				c-0.1,2.2-0.6,4.1-1.6,5.8c-1,1.7-2.3,3.1-3.9,4.3c-1,0.8-2.5,1.5-4.3,2.1c1.4,0.3,2.4,0.6,3.1,1c0.4,0.3,1,0.9,1.8,1.8
				c0.8,0.9,1.3,1.7,1.6,2.2l5.4,10.5l-13.5,1.8l-5.9-11.1c-0.8-1.4-1.4-2.3-2.1-2.7c-0.8-0.5-1.8-0.7-2.9-0.5l-1.1,0.1l-0.6,15.9
				L244.5,292z M257.4,267.2l5.1-0.7c0.5-0.1,1.6-0.4,3.2-1c0.8-0.3,1.5-0.8,2-1.5s0.8-1.5,0.8-2.4c0-1.3-0.3-2.2-1.1-2.7
				s-2.2-0.7-4.4-0.4l-5.3,0.7L257.4,267.2z"/>
			<path class="st9" d="M287.4,247.4l32.1-4.3l-0.3,8.3l-20.1,2.7l-0.2,6.2l18.6-2.5l-0.3,8l-18.6,2.5l-0.3,7.7l20.7-2.8l-0.3,8.9
				l-32.7,4.4L287.4,247.4z"/>
			<path class="st9" d="M322,242.7l11.4-1.5l3.2,21.3l6.8-22.7l11.3-1.5l5.2,21l5-22.4l11.3-1.5l-10.1,40.2l-11.7,1.6l-5.8-23.7
				l-7.7,25.5l-11.7,1.6L322,242.7z"/>
			<path class="st9" d="M380.1,235l12-1.6l-1.5,39.1l-12,1.6L380.1,235z"/>
			<path class="st9" d="M400.2,232.3l11.2-1.5l13.8,19.7l0.8-21.6l11.3-1.5l-1.5,39.1l-11.3,1.5l-13.7-19.5L410,270l-11.3,1.5
				L400.2,232.3z"/>
			<path class="st9" d="M463.2,248.6l0.3-8.1L482,238l-0.6,16.7c-3.6,2.9-6.8,5-9.6,6.2s-6,2.1-9.7,2.6c-4.6,0.6-8.3,0.3-11.2-0.9
				c-2.8-1.2-5-3.2-6.5-6.2c-1.5-2.9-2.1-6.4-2-10.5c0.2-4.3,1.2-8.1,3.1-11.5c1.9-3.4,4.5-6.1,7.9-8.2c2.7-1.6,6.2-2.7,10.7-3.3
				c4.3-0.6,7.5-0.6,9.6-0.1s3.8,1.5,5.1,2.9c1.3,1.5,2.3,3.4,2.9,5.8l-11.6,3.6c-0.4-1.4-1.2-2.4-2.3-3.1c-1.1-0.6-2.5-0.8-4.3-0.6
				c-2.6,0.4-4.8,1.6-6.4,3.6c-1.6,2-2.5,5.1-2.7,9c-0.2,4.2,0.5,7.1,2,8.7s3.7,2.2,6.5,1.8c1.3-0.2,2.6-0.5,3.9-1.1
				s2.6-1.4,4.3-2.6l0.1-3.7L463.2,248.6z"/>
		</g>
	</g>
</g>
</svg>
